<svg xmlns="http://www.w3.org/2000/svg" xmlns:xlink="http://www.w3.org/1999/xlink" width="120" zoomAndPan="magnify" viewBox="0 0 90 44.999999" height="60" preserveAspectRatio="xMidYMid meet" version="1.0"><defs><g/><clipPath id="id1"><path d="M 23 37 L 28 37 L 28 40.128906 L 23 40.128906 Z M 23 37 " clip-rule="nonzero"/></clipPath><clipPath id="id2"><path d="M 9 37 L 14 37 L 14 40.128906 L 9 40.128906 Z M 9 37 " clip-rule="nonzero"/></clipPath><clipPath id="id3"><path d="M 9 8.628906 L 28 8.628906 L 28 13 L 9 13 Z M 9 8.628906 " clip-rule="nonzero"/></clipPath><clipPath id="id4"><path d="M 8.628906 8.628906 L 28 8.628906 L 28 39 L 8.628906 39 Z M 8.628906 8.628906 " clip-rule="nonzero"/></clipPath><clipPath id="id5"><path d="M 8.628906 8.628906 L 28.128906 8.628906 L 28.128906 39 L 8.628906 39 Z M 8.628906 8.628906 " clip-rule="nonzero"/></clipPath></defs><path fill="#231f20" d="M 23.734375 39.226562 C 23.734375 39.640625 24.078125 39.980469 24.503906 39.980469 L 26.394531 39.980469 C 26.824219 39.980469 27.167969 39.640625 27.167969 39.226562 L 27.167969 38.53125 C 27.167969 38.113281 26.824219 37.777344 26.394531 37.777344 L 24.503906 37.777344 C 24.078125 37.777344 23.734375 38.113281 23.734375 38.53125 L 23.734375 39.226562 " fill-opacity="1" fill-rule="nonzero"/><g clip-path="url(#id1)"><path stroke-linecap="round" transform="matrix(0.00964753, 0, 0, -0.00944947, -2.132017, 42.963988)" fill="none" stroke-linejoin="round" d="M 2681.141441 395.517175 C 2681.141441 351.69856 2716.772323 315.734225 2760.90603 315.734225 L 2956.875886 315.734225 C 3001.414489 315.734225 3037.045372 351.69856 3037.045372 395.517175 L 3037.045372 469.099378 C 3037.045372 513.331377 3001.414489 548.882329 2956.875886 548.882329 L 2760.90603 548.882329 C 2716.772323 548.882329 2681.141441 513.331377 2681.141441 469.099378 Z M 2681.141441 395.517175 " stroke="#ffffff" stroke-width="30" stroke-opacity="1" stroke-miterlimit="10"/></g><path fill="#231f20" d="M 9.589844 39.226562 C 9.589844 39.640625 9.933594 39.980469 10.359375 39.980469 L 12.253906 39.980469 C 12.679688 39.980469 13.023438 39.640625 13.023438 39.226562 L 13.023438 38.53125 C 13.023438 38.113281 12.679688 37.777344 12.253906 37.777344 L 10.359375 37.777344 C 9.933594 37.777344 9.589844 38.113281 9.589844 38.53125 L 9.589844 39.226562 " fill-opacity="1" fill-rule="nonzero"/><g clip-path="url(#id2)"><path stroke-linecap="round" transform="matrix(0.00964753, 0, 0, -0.00944947, -2.132017, 42.963988)" fill="none" stroke-linejoin="round" d="M 1215.011593 395.517175 C 1215.011593 351.69856 1250.642476 315.734225 1294.776183 315.734225 L 1491.150935 315.734225 C 1535.284642 315.734225 1570.915525 351.69856 1570.915525 395.517175 L 1570.915525 469.099378 C 1570.915525 513.331377 1535.284642 548.882329 1491.150935 548.882329 L 1294.776183 548.882329 C 1250.642476 548.882329 1215.011593 513.331377 1215.011593 469.099378 Z M 1215.011593 395.517175 " stroke="#ffffff" stroke-width="30" stroke-opacity="1" stroke-miterlimit="10"/></g><g clip-path="url(#id3)"><path fill="#231f20" d="M 9.515625 11.628906 C 9.515625 12.046875 9.859375 12.382812 10.285156 12.382812 L 26.394531 12.382812 C 26.824219 12.382812 27.167969 12.046875 27.167969 11.628906 L 26.394531 6.523438 C 26.394531 6.105469 26.082031 5.769531 25.691406 5.769531 L 10.988281 5.769531 C 10.601562 5.769531 10.285156 6.105469 10.285156 6.523438 L 9.515625 11.628906 " fill-opacity="1" fill-rule="nonzero"/><path stroke-linecap="round" transform="matrix(0.00964753, 0, 0, -0.00944947, -2.132017, 42.963988)" fill="none" stroke-linejoin="round" d="M 1207.318562 3316.069227 C 1207.318562 3271.837228 1242.949445 3236.286276 1287.083152 3236.286276 L 2956.875886 3236.286276 C 3001.414489 3236.286276 3037.045372 3271.837228 3037.045372 3316.069227 L 2956.875886 3856.361022 C 2956.875886 3900.59302 2924.484174 3936.143972 2883.994535 3936.143972 L 1359.964503 3936.143972 C 1319.87976 3936.143972 1287.083152 3900.59302 1287.083152 3856.361022 Z M 1207.318562 3316.069227 " stroke="#ffffff" stroke-width="30" stroke-opacity="1" stroke-miterlimit="10"/></g><g clip-path="url(#id4)"><path fill="#231f20" d="M 8.796875 37.832031 C 8.796875 38.25 9.144531 38.585938 9.570312 38.585938 L 27.1875 38.585938 C 27.613281 38.585938 27.957031 38.25 27.957031 37.832031 L 27.957031 9.5 C 27.957031 9.082031 27.613281 8.746094 27.1875 8.746094 L 9.570312 8.746094 C 9.144531 8.746094 8.796875 9.082031 8.796875 9.5 L 8.796875 37.832031 " fill-opacity="1" fill-rule="nonzero"/></g><g clip-path="url(#id5)"><path stroke-linecap="round" transform="matrix(0.00964753, 0, 0, -0.00944947, -2.132017, 42.963988)" fill="none" stroke-linejoin="round" d="M 1132.817625 543.094965 C 1132.817625 498.862966 1168.853404 463.312014 1212.987111 463.312014 L 3039.069854 463.312014 C 3083.203561 463.312014 3118.834444 498.862966 3118.834444 543.094965 L 3118.834444 3541.363051 C 3118.834444 3585.595049 3083.203561 3621.146001 3039.069854 3621.146001 L 1212.987111 3621.146001 C 1168.853404 3621.146001 1132.817625 3585.595049 1132.817625 3541.363051 Z M 1132.817625 543.094965 " stroke="#ffffff" stroke-width="30" stroke-opacity="1" stroke-miterlimit="10"/></g><path fill="#231f20" d="M 23.4375 16.464844 C 23.4375 19.203125 21.171875 21.421875 18.378906 21.421875 C 15.585938 21.421875 13.320312 19.203125 13.320312 16.464844 C 13.320312 13.730469 15.585938 11.511719 18.378906 11.511719 C 21.171875 11.511719 23.4375 13.730469 23.4375 16.464844 " fill-opacity="1" fill-rule="nonzero"/><path stroke-linecap="round" transform="matrix(0.00964753, 0, 0, -0.00944947, -2.132017, 42.963988)" fill="none" stroke-linejoin="round" d="M 2650.369315 2804.30087 C 2650.369315 2514.519272 2415.529405 2279.717635 2126.028483 2279.717635 C 1836.52756 2279.717635 1601.687651 2514.519272 1601.687651 2804.30087 C 1601.687651 3093.669085 1836.52756 3328.470722 2126.028483 3328.470722 C 2415.529405 3328.470722 2650.369315 3093.669085 2650.369315 2804.30087 Z M 2650.369315 2804.30087 " stroke="#ffffff" stroke-width="30" stroke-opacity="1" stroke-miterlimit="10"/><path fill="#231f20" d="M 21.953125 16.464844 C 21.953125 18.398438 20.351562 19.96875 18.378906 19.96875 C 16.40625 19.96875 14.804688 18.398438 14.804688 16.464844 C 14.804688 14.53125 16.40625 12.964844 18.378906 12.964844 C 20.351562 12.964844 21.953125 14.53125 21.953125 16.464844 " fill-opacity="1" fill-rule="nonzero"/><path stroke-linecap="round" transform="matrix(0.00964753, 0, 0, -0.00944947, -2.132017, 42.963988)" fill="none" stroke-linejoin="round" d="M 2496.508684 2804.30087 C 2496.508684 2599.676204 2330.501162 2433.496172 2126.028483 2433.496172 C 1921.555803 2433.496172 1755.548281 2599.676204 1755.548281 2804.30087 C 1755.548281 3008.925536 1921.555803 3174.692185 2126.028483 3174.692185 C 2330.501162 3174.692185 2496.508684 3008.925536 2496.508684 2804.30087 Z M 2496.508684 2804.30087 " stroke="#ffffff" stroke-width="30" stroke-opacity="1" stroke-miterlimit="10"/><path fill="#231f20" d="M 20.132812 16.464844 C 20.132812 17.417969 19.347656 18.1875 18.378906 18.1875 C 17.410156 18.1875 16.625 17.417969 16.625 16.464844 C 16.625 15.515625 17.410156 14.746094 18.378906 14.746094 C 19.347656 14.746094 20.132812 15.515625 20.132812 16.464844 " fill-opacity="1" fill-rule="nonzero"/><path stroke-linecap="round" transform="matrix(0.00964753, 0, 0, -0.00944947, -2.132017, 42.963988)" fill="none" stroke-linejoin="round" d="M 2307.826964 2804.30087 C 2307.826964 2703.435378 2226.442789 2621.998895 2126.028483 2621.998895 C 2025.614177 2621.998895 1944.230001 2703.435378 1944.230001 2804.30087 C 1944.230001 2904.752979 2025.614177 2986.189462 2126.028483 2986.189462 C 2226.442789 2986.189462 2307.826964 2904.752979 2307.826964 2804.30087 Z M 2307.826964 2804.30087 " stroke="#ffffff" stroke-width="30" stroke-opacity="1" stroke-miterlimit="10"/><path fill="#231f20" d="M 25.125 30.074219 C 25.125 33.722656 22.105469 36.683594 18.378906 36.683594 C 14.652344 36.683594 11.628906 33.722656 11.628906 30.074219 C 11.628906 26.421875 14.652344 23.464844 18.378906 23.464844 C 22.105469 23.464844 25.125 26.421875 25.125 30.074219 " fill-opacity="1" fill-rule="nonzero"/><path stroke-linecap="round" transform="matrix(0.00964753, 0, 0, -0.00944947, -2.132017, 42.963988)" fill="none" stroke-linejoin="round" d="M 2825.284557 1364.073928 C 2825.284557 977.974053 2512.299644 664.629615 2126.028483 664.629615 C 1739.757322 664.629615 1426.367512 977.974053 1426.367512 1364.073928 C 1426.367512 1750.587186 1739.757322 2063.518241 2126.028483 2063.518241 C 2512.299644 2063.518241 2825.284557 1750.587186 2825.284557 1364.073928 Z M 2825.284557 1364.073928 " stroke="#ffffff" stroke-width="30" stroke-opacity="1" stroke-miterlimit="10"/><path fill="#231f20" d="M 23.144531 30.074219 C 23.144531 32.652344 21.011719 34.742188 18.378906 34.742188 C 15.746094 34.742188 13.609375 32.652344 13.609375 30.074219 C 13.609375 27.496094 15.746094 25.402344 18.378906 25.402344 C 21.011719 25.402344 23.144531 27.496094 23.144531 30.074219 " fill-opacity="1" fill-rule="nonzero"/><path stroke-linecap="round" transform="matrix(0.00964753, 0, 0, -0.00944947, -2.132017, 42.963988)" fill="none" stroke-linejoin="round" d="M 2620.002085 1364.073928 C 2620.002085 1091.24104 2398.928653 870.081047 2126.028483 870.081047 C 1853.128312 870.081047 1631.649984 1091.24104 1631.649984 1364.073928 C 1631.649984 1636.906816 1853.128312 1858.480191 2126.028483 1858.480191 C 2398.928653 1858.480191 2620.002085 1636.906816 2620.002085 1364.073928 Z M 2620.002085 1364.073928 " stroke="#ffffff" stroke-width="30" stroke-opacity="1" stroke-miterlimit="10"/><path fill="#231f20" d="M 20.71875 30.074219 C 20.71875 31.339844 19.671875 32.367188 18.378906 32.367188 C 17.085938 32.367188 16.039062 31.339844 16.039062 30.074219 C 16.039062 28.808594 17.085938 27.78125 18.378906 27.78125 C 19.671875 27.78125 20.71875 28.808594 20.71875 30.074219 " fill-opacity="1" fill-rule="nonzero"/><path stroke-linecap="round" transform="matrix(0.00964753, 0, 0, -0.00944947, -2.132017, 42.963988)" fill="none" stroke-linejoin="round" d="M 2368.561423 1364.073928 C 2368.561423 1230.137783 2260.04919 1121.418011 2126.028483 1121.418011 C 1992.007776 1121.418011 1883.495542 1230.137783 1883.495542 1364.073928 C 1883.495542 1498.010073 1992.007776 1606.729845 2126.028483 1606.729845 C 2260.04919 1606.729845 2368.561423 1498.010073 2368.561423 1364.073928 Z M 2368.561423 1364.073928 " stroke="#ffffff" stroke-width="30" stroke-opacity="1" stroke-miterlimit="10"/><g fill="#000000" fill-opacity="1"><g transform="translate(32.637219, 26.054502)"><g><path d="M 5.9375 -9.476562 L 5.9375 -5.335938 L 1.628906 -5.335938 L 1.628906 -9.476562 L 0.421875 -9.476562 L 0.421875 0 L 1.628906 0 L 1.628906 -4.140625 L 5.9375 -4.140625 L 5.9375 0 L 7.148438 0 L 7.148438 -9.476562 Z M 5.9375 -9.476562 "/></g></g></g><g fill="#000000" fill-opacity="1"><g transform="translate(40.204013, 26.054502)"><g><path d="M 5.742188 -6.527344 L 5.742188 -5.628906 C 5.238281 -6.191406 4.507812 -6.527344 3.679688 -6.527344 C 1.867188 -6.527344 0.421875 -5.054688 0.421875 -3.257812 C 0.421875 -1.445312 1.867188 0 3.679688 0 C 4.507812 0 5.238281 -0.335938 5.742188 -0.882812 L 5.742188 0 L 6.949219 0 L 6.949219 -6.527344 Z M 3.679688 -1.207031 C 2.542969 -1.207031 1.628906 -2.121094 1.628906 -3.257812 C 1.628906 -4.394531 2.542969 -5.320312 3.679688 -5.320312 C 4.816406 -5.320312 5.742188 -4.394531 5.742188 -3.257812 C 5.742188 -2.121094 4.816406 -1.207031 3.679688 -1.207031 Z M 3.679688 -1.207031 "/></g></g></g><g fill="#000000" fill-opacity="1"><g transform="translate(47.574268, 26.054502)"><g><path d="M 3.792969 -6.527344 C 2.949219 -6.527344 2.203125 -6.179688 1.683594 -5.628906 L 1.683594 -6.527344 L 0.421875 -6.527344 L 0.421875 2.949219 L 1.683594 2.949219 L 1.683594 -0.898438 C 2.203125 -0.351562 2.949219 -0.015625 3.792969 -0.015625 C 5.644531 -0.015625 7.160156 -1.460938 7.160156 -3.257812 C 7.160156 -5.054688 5.644531 -6.527344 3.792969 -6.527344 Z M 3.792969 -1.222656 C 2.625 -1.265625 1.683594 -2.132812 1.683594 -3.257812 C 1.683594 -4.410156 2.652344 -5.320312 3.792969 -5.320312 C 4.96875 -5.320312 5.898438 -4.378906 5.898438 -3.257812 C 5.898438 -2.132812 4.929688 -1.222656 3.792969 -1.222656 Z M 3.792969 -1.222656 "/></g></g></g><g fill="#000000" fill-opacity="1"><g transform="translate(55.155099, 26.054502)"><g><path d="M 3.792969 -6.527344 C 2.949219 -6.527344 2.203125 -6.179688 1.683594 -5.628906 L 1.683594 -6.527344 L 0.421875 -6.527344 L 0.421875 2.949219 L 1.683594 2.949219 L 1.683594 -0.898438 C 2.203125 -0.351562 2.949219 -0.015625 3.792969 -0.015625 C 5.644531 -0.015625 7.160156 -1.460938 7.160156 -3.257812 C 7.160156 -5.054688 5.644531 -6.527344 3.792969 -6.527344 Z M 3.792969 -1.222656 C 2.625 -1.265625 1.683594 -2.132812 1.683594 -3.257812 C 1.683594 -4.410156 2.652344 -5.320312 3.792969 -5.320312 C 4.96875 -5.320312 5.898438 -4.378906 5.898438 -3.257812 C 5.898438 -2.132812 4.929688 -1.222656 3.792969 -1.222656 Z M 3.792969 -1.222656 "/></g></g></g><g fill="#000000" fill-opacity="1"><g transform="translate(62.735931, 26.054502)"><g><path d="M 1.023438 -7.246094 C 1.363281 -7.246094 1.628906 -7.511719 1.628906 -7.847656 C 1.628906 -8.1875 1.363281 -8.453125 1.023438 -8.453125 C 0.6875 -8.453125 0.421875 -8.1875 0.421875 -7.847656 C 0.421875 -7.511719 0.6875 -7.246094 1.023438 -7.246094 Z M 1.628906 -6.515625 L 0.421875 -6.515625 L 0.421875 0 L 1.628906 0 Z M 1.628906 -6.515625 "/></g></g></g><g fill="#000000" fill-opacity="1"><g transform="translate(64.785563, 26.054502)"><g><path d="M 5.210938 -9.476562 C 3.550781 -9.476562 2.132812 -8.171875 1.980469 -6.417969 C 1.964844 -6.148438 1.953125 -5.871094 1.953125 -5.601562 L 0.421875 -5.601562 L 0.421875 -4.394531 L 1.953125 -4.394531 L 1.953125 0 L 3.160156 0 L 3.160156 -4.394531 L 5.210938 -4.394531 L 5.210938 -5.601562 L 3.160156 -5.601562 C 3.160156 -5.882812 3.171875 -6.148438 3.203125 -6.402344 C 3.3125 -7.484375 4.210938 -8.269531 5.210938 -8.269531 Z M 5.210938 -9.476562 "/></g></g></g><g fill="#000000" fill-opacity="1"><g transform="translate(70.415032, 26.054502)"><g><path d="M 5.730469 -6.515625 L 5.730469 -3.273438 C 5.730469 -2.132812 4.773438 -1.222656 3.664062 -1.222656 C 2.527344 -1.222656 1.613281 -2.148438 1.613281 -3.273438 L 1.613281 -6.515625 L 0.421875 -6.515625 L 0.421875 -3.273438 C 0.421875 -1.460938 1.867188 -0.015625 3.664062 -0.015625 C 4.492188 -0.015625 5.222656 -0.351562 5.730469 -0.914062 L 5.730469 1.195312 C 5.730469 2.316406 4.789062 3.257812 3.664062 3.257812 C 2.542969 3.257812 1.613281 2.316406 1.613281 1.195312 L 0.421875 1.195312 C 0.421875 3.003906 1.867188 4.449219 3.664062 4.449219 C 5.449219 4.449219 6.921875 3.003906 6.921875 1.195312 L 6.921875 -6.515625 Z M 5.730469 -6.515625 "/></g></g></g><g fill="#000000" fill-opacity="1"><g transform="translate(8.392606, 14.73613)"><g><path d="M -0.5625 -0.484375 L -0.1875 -0.15625 L -1.78125 1.703125 L -2.15625 1.375 Z M -0.5625 -0.484375 "/></g></g></g><g fill="#000000" fill-opacity="1"><g transform="translate(7.781683, 14.227216)"><g/></g></g><g fill="#000000" fill-opacity="1"><g transform="translate(7.344239, 13.747297)"><g><path d="M -0.390625 -0.625 L -0.125 -0.21875 L -2.21875 1.0625 L -2.484375 0.65625 Z M -0.390625 -0.625 "/></g></g></g><g fill="#000000" fill-opacity="1"><g transform="translate(6.921335, 13.073947)"><g/></g></g><g fill="#000000" fill-opacity="1"><g transform="translate(6.654374, 12.482011)"><g><path d="M -0.171875 -0.71875 L -0.0625 -0.25 L -2.453125 0.3125 L -2.5625 -0.15625 Z M -0.171875 -0.71875 "/></g></g></g><g fill="#000000" fill-opacity="1"><g transform="translate(6.461226, 11.71067)"><g/></g></g><g fill="#000000" fill-opacity="1"><g transform="translate(6.391088, 11.065134)"><g><path d="M 0.0625 -0.734375 L 0.015625 -0.25 L -2.421875 -0.453125 L -2.375 -0.9375 Z M 0.0625 -0.734375 "/></g></g></g><g fill="#000000" fill-opacity="1"><g transform="translate(6.44676, 10.271916)"><g/></g></g><g fill="#000000" fill-opacity="1"><g transform="translate(6.580364, 9.636486)"><g><path d="M 0.28125 -0.671875 L 0.09375 -0.234375 L -2.171875 -1.1875 L -1.984375 -1.625 Z M 0.28125 -0.671875 "/></g></g></g><g fill="#000000" fill-opacity="1"><g transform="translate(6.879366, 8.899664)"><g/></g></g><g fill="#000000" fill-opacity="1"><g transform="translate(7.203523, 8.337048)"><g><path d="M 0.484375 -0.5625 L 0.15625 -0.1875 L -1.703125 -1.796875 L -1.375 -2.171875 Z M 0.484375 -0.5625 "/></g></g></g><g fill="#000000" fill-opacity="1"><g transform="translate(7.716352, 7.729332)"><g/></g></g><g fill="#000000" fill-opacity="1"><g transform="translate(8.19907, 7.295056)"><g><path d="M 0.625 -0.375 L 0.21875 -0.125 L -1.046875 -2.21875 L -0.640625 -2.46875 Z M 0.625 -0.375 "/></g></g></g><g fill="#000000" fill-opacity="1"><g transform="translate(8.875123, 6.87641)"><g/></g></g><g fill="#000000" fill-opacity="1"><g transform="translate(9.468762, 6.613335)"><g><path d="M 0.71875 -0.171875 L 0.25 -0.0625 L -0.296875 -2.453125 L 0.171875 -2.5625 Z M 0.71875 -0.171875 "/></g></g></g><g fill="#000000" fill-opacity="1"><g transform="translate(10.241328, 6.425069)"><g/></g></g><g fill="#000000" fill-opacity="1"><g transform="translate(10.887301, 6.359157)"><g><path d="M 0.734375 0.0625 L 0.25 0.015625 L 0.46875 -2.421875 L 0.953125 -2.375 Z M 0.734375 0.0625 "/></g></g></g><g fill="#000000" fill-opacity="1"><g transform="translate(11.680145, 6.419847)"><g/></g></g><g fill="#000000" fill-opacity="1"><g transform="translate(12.314705, 6.557608)"><g><path d="M 0.671875 0.28125 L 0.234375 0.09375 L 1.203125 -2.15625 L 1.640625 -1.96875 Z M 0.671875 0.28125 "/></g></g></g><g fill="#000000" fill-opacity="1"><g transform="translate(13.049591, 6.86126)"><g/></g></g><g fill="#000000" fill-opacity="1"><g transform="translate(13.610111, 7.189102)"><g><path d="M 0.546875 0.484375 L 0.1875 0.171875 L 1.796875 -1.671875 L 2.15625 -1.359375 Z M 0.546875 0.484375 "/></g></g></g><g fill="#000000" fill-opacity="1"><g transform="translate(14.214522, 7.705748)"><g/></g></g></svg>